<?xml version="1.0" standalone="no"?>
<!DOCTYPE svg PUBLIC "-//W3C//DTD SVG 20010904//EN"
 "http://www.w3.org/TR/2001/REC-SVG-20010904/DTD/svg10.dtd">
<svg version="1.0" xmlns="http://www.w3.org/2000/svg"
 width="640.000000pt" height="640.000000pt" viewBox="0 0 640.000000 640.000000"
 preserveAspectRatio="xMidYMid meet">

<g transform="translate(0.000000,640.000000) scale(0.100000,-0.100000)"
fill="#000000" stroke="none">
<path d="M0 3200 l0 -3200 3200 0 3200 0 0 3200 0 3200 -3200 0 -3200 0 0
-3200z m3595 2501 c990 -166 1793 -913 2005 -1866 182 -818 -60 -1649 -655
-2250 -449 -453 -1102 -725 -1740 -725 -448 0 -870 118 -1255 348 -818 491
-1281 1372 -1200 2282 28 309 103 576 245 865 128 262 248 432 453 638 213
216 399 350 657 477 287 141 568 220 910 254 105 11 464 -4 580 -23z"/>
<path d="M2015 4696 c-17 -7 -43 -28 -58 -45 l-27 -33 0 -601 c0 -671 2 -647
-69 -694 -33 -22 -42 -23 -263 -23 -256 0 -283 -5 -318 -62 -19 -32 -20 -49
-20 -591 l0 -557 34 -38 34 -37 324 -3 c349 -2 353 -2 392 51 19 26 22 46 26
200 5 187 10 205 63 237 29 18 52 20 265 20 339 0 342 -2 343 -245 0 -173 9
-209 58 -242 l35 -24 373 3 373 3 32 33 33 32 5 168 c6 188 16 219 80 254 32
17 55 18 277 16 l241 -3 27 -25 c50 -47 55 -67 55 -232 0 -169 5 -189 59 -225
33 -23 38 -23 334 -23 282 0 303 1 343 20 76 37 74 18 74 622 0 588 1 575 -63
622 -26 20 -46 21 -270 26 -258 5 -266 7 -309 59 l-25 29 -6 607 c-7 686 -3
650 -87 693 -43 21 -53 22 -337 22 -318 0 -335 -2 -383 -54 -24 -27 -25 -32
-30 -216 -5 -206 -8 -215 -74 -264 -26 -20 -42 -21 -334 -24 -347 -3 -370 0
-420 66 -27 35 -27 38 -32 218 -6 203 -10 218 -80 255 -32 17 -61 19 -340 19
-231 -1 -312 -4 -335 -14z m806 -991 c16 -9 39 -30 49 -48 18 -29 20 -51 20
-235 l0 -202 -34 -38 -34 -37 -226 -3 c-250 -3 -269 0 -306 61 -18 29 -20 51
-20 232 0 221 2 228 64 266 28 17 52 19 244 19 173 0 219 -3 243 -15z m1267
-19 l37 -34 3 -206 c3 -228 -1 -250 -61 -286 -29 -18 -51 -20 -247 -20 -312 0
-310 -2 -310 291 0 167 2 184 22 220 36 64 54 69 301 69 l217 0 38 -34z"/>
<path d="M2403 3683 c9 -2 23 -2 30 0 6 3 -1 5 -18 5 -16 0 -22 -2 -12 -5z"/>
<path d="M2333 3656 l-28 -24 -3 -192 c-5 -274 -9 -270 285 -270 193 0 227 6
198 30 -14 11 -16 11 -13 -1 2 -10 -8 -14 -37 -16 -22 -1 -31 1 -20 3 46 11
47 12 30 44 -8 16 -14 30 -11 30 2 0 -2 19 -9 43 -7 23 -18 42 -26 42 -7 0
-18 9 -24 20 -24 47 -48 75 -64 75 -9 0 -28 12 -42 28 -40 42 -84 79 -74 62 4
-8 -6 -2 -23 14 -17 16 -28 34 -25 40 3 6 3 8 -1 4 -5 -4 -19 5 -32 20 -16 19
-24 22 -24 12 0 -12 -3 -11 -11 3 -5 9 -7 22 -4 27 12 20 -6 9 -32 -17 -21
-23 -24 -24 -14 -6 6 12 21 29 33 37 12 9 17 16 11 16 -7 0 -25 -11 -40 -24z
m344 -472 c-3 -3 -12 -4 -19 -1 -8 3 -5 6 6 6 11 1 17 -2 13 -5z"/>
<path d="M3564 3643 c-16 -24 -19 -52 -22 -199 -6 -273 -3 -275 275 -272 l178
2 -145 6 c-120 5 -131 6 -65 9 44 2 68 6 53 8 -23 3 -28 10 -28 31 -1 34 -44
135 -54 125 -4 -4 -4 0 0 10 4 11 1 17 -9 17 -9 0 -18 9 -22 20 -3 11 -16 27
-29 37 -12 10 -25 26 -29 36 -4 10 -11 16 -15 13 -5 -3 -14 11 -21 30 -8 23
-18 34 -26 30 -17 -6 -29 26 -20 57 5 20 5 20 -9 -3 -12 -20 -15 -21 -16 -7 0
10 7 31 15 47 19 38 13 39 -11 3z"/>
<path d="M3734 2465 c-17 -13 -15 -15 11 -15 3 0 5 3 4 7 0 4 8 10 18 14 14 6
14 8 2 8 -8 1 -24 -6 -35 -14z"/>
<path d="M3693 2360 c0 -25 2 -35 4 -22 2 12 2 32 0 45 -2 12 -4 2 -4 -23z"/>
</g>
</svg>
