<svg xmlns="http://www.w3.org/2000/svg" viewBox="0 0 100 100">
  <circle cx="50" cy="50" r="20" fill="#ffeb3b"/>
  <g stroke="#ffc107" stroke-width="4" fill="none" stroke-linecap="round">
    <path d="M79.54 44.79 A 30 30 0 0 1 79.54 55.21"/>
    <path d="M74.57 67.21 A 30 30 0 0 1 67.21 74.57"/>
    <path d="M55.21 79.54 A 30 30 0 0 1 44.79 79.54"/>
    <path d="M32.79 74.57 A 30 30 0 0 1 25.43 67.21"/>
    <path d="M20.46 55.21 A 30 30 0 0 1 20.46 44.79"/>
    <path d="M25.43 32.79 A 30 30 0 0 1 32.79 25.43"/>
    <path d="M44.79 20.46 A 30 30 0 0 1 55.21 20.46"/>
    <path d="M67.21 25.43 A 30 30 0 0 1 74.57 32.79"/>
  </g>
</svg>
